<?xml version="1.0" encoding="UTF-8" standalone="no"?>
<!-- Created with Inkscape (http://www.inkscape.org/) -->

<svg
   xmlns:dc="http://purl.org/dc/elements/1.1/"
   xmlns:cc="http://creativecommons.org/ns#"
   xmlns:rdf="http://www.w3.org/1999/02/22-rdf-syntax-ns#"
   xmlns:svg="http://www.w3.org/2000/svg"
   xmlns="http://www.w3.org/2000/svg"
   xmlns:sodipodi="http://sodipodi.sourceforge.net/DTD/sodipodi-0.dtd"
   xmlns:inkscape="http://www.inkscape.org/namespaces/inkscape"
   width="640px"
   height="480px"
   id="svg2993"
   version="1.1"
   inkscape:version="0.48.4 r9939"
   inkscape:export-filename="/home/cesco/pc++/andre/2015/t3.png"
   inkscape:export-xdpi="90"
   inkscape:export-ydpi="90"
   sodipodi:docname="Nuovo documento 3">
  <defs
     id="defs2995" />
  <sodipodi:namedview
     id="base"
     pagecolor="#ffffff"
     bordercolor="#666666"
     borderopacity="1.0"
     inkscape:pageopacity="0.0"
     inkscape:pageshadow="2"
     inkscape:zoom="0.77472527"
     inkscape:cx="170.2695"
     inkscape:cy="240"
     inkscape:current-layer="layer3"
     inkscape:document-units="px"
     showgrid="false"
     inkscape:window-width="1366"
     inkscape:window-height="720"
     inkscape:window-x="0"
     inkscape:window-y="26"
     inkscape:window-maximized="1" />
  <metadata
     id="metadata2998">
    <rdf:RDF>
      <cc:Work
         rdf:about="">
        <dc:format>image/svg+xml</dc:format>
        <dc:type
           rdf:resource="http://purl.org/dc/dcmitype/StillImage" />
        <dc:title></dc:title>
      </cc:Work>
    </rdf:RDF>
  </metadata>
  <g
     id="layer1"
     inkscape:label="Layer 1"
     inkscape:groupmode="layer"
     style="opacity:0.26717559;display:none">
    <path
       style="fill:#2b0000;fill-opacity:1;stroke:none"
       d="M 610.75,-4.53125 C 587.60601,-3.2082657 565.61497,6.142279 542.32818,6.15625 506.98823,7.1135519 471.60517,11.122415 436.25687,8.1758116 420.70577,6.4374106 405.71262,0.31087576 389.88955,0.99158106 350.01306,3.4681739 310.60263,11.055828 270.64469,12.528506 245.72566,13.387387 220.59109,12.692159 196.08151,7.7518809 182.74231,4.8815232 168.96891,2.3553384 155.30737,4.2596613 141.55457,6.1729856 128.81432,13.269262 114.73752,13.1875 98.835927,12.57877 83.673716,7.2236036 68.149392,4.2658212 56.096292,1.8584141 43.809195,0.90755488 31.560443,0.13985623 23.606013,-0.11415579 15.447454,0.03572435 7.7970976,2.4374191 -0.07259323,5.5801557 -4.391821,14.443369 -4.0489957,22.619808 c 0.3844893,4.722408 1.3105374,9.413739 0.9525218,14.17313 -0.2308439,6.407474 -1.9411927,12.661308 -4.375378,18.560118 -2.6511641,7.94031 -3.9061751,16.651007 -1.563656,24.830951 2.8100207,13.448479 6.5249171,26.931813 6.0906773,40.792213 1.583045,61.51716 -1.6926314,123.03032 -0.8335484,184.55031 0.2414513,17.97903 0.8227316,35.95693 0.473542,53.93891 -0.3219204,33.16327 -2.1917761,66.29712 -5.0702003,99.33209 -0.3857178,6.43184 1.8947141,13.07958 6.6985185,17.48397 4.9838833,4.92885 12.1017568,7.23582 19.0253618,7.1011 15.679941,1.11357 31.390457,-0.24677 47.085357,10e-4 113.87099,-1.05789 227.74801,-1.05332 341.62268,-1.3108 47.61891,-0.008 95.23887,-0.22044 142.85708,0.0947 11.2337,0.22712 22.49175,0.10965 33.69905,0.99235 17.18303,1.36356 34.27374,4.18696 51.53701,4.31619 7.96393,-0.82047 15.88359,-6.49896 17.34188,-14.69242 1.89628,-9.78425 -1.87393,-19.45684 -1.6085,-29.25554 -0.41782,-16.8927 0.75148,-33.78799 0.0656,-50.67897 -0.55866,-23.09907 -2.06164,-46.18094 -1.7692,-69.2962 0.0408,-18.12082 -0.23413,-36.24073 -0.8945,-54.3498 -0.54508,-24.67663 -0.13815,-49.36224 -0.60458,-74.04009 -0.21797,-24.11507 -0.68745,-48.23795 -0.14948,-72.35084 0.4471,-11.75918 2.00276,-23.432914 3.71875,-35.0625 1.53478,-12.10954 1.70457,-24.346877 1.12189,-36.526531 C 651.16817,40.002816 650.95232,28.714436 649.09375,17.625 647.99632,12.357799 645.23742,7.3024879 641.0625,3.6875 635.03517,-1.936225 626.65529,-4.4554804 618.52074,-4.366122 615.93772,-4.5659207 613.3393,-4.5779942 610.75,-4.53125 z"
       id="path3006"
       inkscape:connector-curvature="0"
       inkscape:export-filename="/home/cesco/pc++/andre/2015/t1.png"
       inkscape:export-xdpi="90"
       inkscape:export-ydpi="90" />
  </g>
  <g
     inkscape:groupmode="layer"
     id="layer2"
     inkscape:label="Livello"
     style="opacity:0.3358779;display:none">
    <path
       style="fill:#2b0000;fill-opacity:1;stroke:none"
       d="m 626.42463,157.50178 c -31.57075,2.79545 -63.92823,1.1245 -94.60974,10.61734 -24.4893,13.00102 -52.52732,15.19781 -79.54514,15.2965 -29.50959,2.36116 -59.18927,6.06538 -87.47162,15.56254 -9.58348,8.5043 -20.05894,18.11355 -33.29331,18.63623 -6.94339,0.0693 -13.67253,-1.9467 -20.40047,-3.47567 -13.86366,7.42108 -23.77784,21.98712 -39.40712,25.9186 -45.15748,2.71173 -88.70924,16.85891 -133.50561,22.38621 -26.70549,6.05867 -52.107249,16.87607 -78.270639,24.90872 -22.097632,8.49224 -43.029338,19.91503 -63.7884641,31.42082 -4.9773863,3.37764 -8.0512189,9.65466 -7.3068129,15.98642 0.05946,13.02669 1.6011485,26.00607 1.2205454,39.04684 0.034565,35.69388 -2.7581184,72.06026 5.7378123,107.03247 2.5910552,9.54703 9.4622217,18.12645 18.8875423,20.66317 13.031538,4.20114 26.700205,0.72579 40.020542,1.02321 77.100524,-2.30187 154.241284,-2.03413 231.364204,-2.63663 114.62958,-0.67435 229.30824,-1.05944 343.84366,-6.4307 5.05368,-0.0349 10.17066,-1.05068 14.28966,-4.30623 11.12948,-7.84305 16.16164,-23.47081 12.46991,-36.85722 -8.51498,-74.18519 -3.6487,-149.07659 -8.37431,-223.49691 -1.21194,-20.51959 -2.78186,-41.15968 -7.03285,-61.25089 -2.73073,-5.74447 -8.43114,-10.51306 -14.82779,-10.04482 z"
       id="path3006-8"
       inkscape:connector-curvature="0"
       inkscape:export-filename="/home/cesco/pc++/andre/2015/t2.png"
       inkscape:export-xdpi="90"
       inkscape:export-ydpi="90" />
  </g>
  <g
     inkscape:groupmode="layer"
     id="layer3"
     inkscape:label="Livello#1"
     style="opacity:1">
    <path
       style="fill:#2b0000;fill-opacity:1;stroke:none"
       d="M 614.21875 272.09375 C 539.98299 276.01787 465.60701 279.8358 391.25878 277.05143 C 363.64536 278.49276 337.18168 290.55989 309.25 287.8125 C 268.17967 285.50426 226.62568 279.5738 185.72642 286.96976 C 135.9449 295.23046 86.031209 303.49135 35.595679 306.41307 C 17.558616 308.85964 0.58480085 320.34725 -6.8675217 337.19159 C -14.964068 353.31716 -15.469083 372.20963 -11.794637 389.59428 C -9.6169262 410.48059 -6.3006789 431.23731 -3.5322358 452.03753 C -3.197571 463.12965 -3.6012507 475.5138 3.8728463 484.59894 C 15.232315 499.77618 30.922595 513.26335 50.102439 516.62923 C 62.689667 519.14527 75.416709 516.49247 88.044195 515.86903 C 112.30427 513.89407 136.61352 512.64931 160.93363 511.73478 C 264.82186 506.58859 368.77543 502.86661 472.65625 497.5625 C 488.81255 499.3248 502.6183 511.25488 519.3125 509.84375 C 540.14855 508.61998 560.08188 498.44128 581.21875 501.59375 C 593.64059 504.62291 606.63093 510.20661 619.5 506.21875 C 638.36107 501.80723 655.22651 486.12185 657.78125 466.4375 C 658.66351 449.46668 652.13097 432.3524 656.98896 415.57464 C 660.22623 393.83759 653.81568 372.32624 652.7436 350.69538 C 651.955 342.51586 648.99649 334.46097 643.44168 328.31267 C 633.38048 313.49677 637.20535 293.51412 626.54151 278.98936 C 623.69351 275.01619 619.35314 271.70061 614.21875 272.09375 z "
       id="path3006-8-9"
       inkscape:connector-curvature="0"
       inkscape:export-filename="/home/cesco/pc++/andre/2015/t2.png"
       inkscape:export-xdpi="90"
       inkscape:export-ydpi="90" />
  </g>
</svg>
